<svg width="54" height="54" viewBox="0 0 54 54" fill="none" xmlns="http://www.w3.org/2000/svg">
<rect width="54" height="54" rx="10" fill="white"/>
<path d="M15.4125 38.5875L9.78749 35.4937C9.37499 35.2687 9.14099 34.941 9.08549 34.5105C9.02999 34.08 9.15149 33.714 9.44999 33.4125L10.125 32.7375C10.275 32.5875 10.4535 32.484 10.6605 32.427C10.8675 32.37 11.064 32.361 11.25 32.4L16.2 33.075L24.975 24.3L9.67499 15.975C9.11249 15.675 8.78474 15.2062 8.69174 14.5687C8.59874 13.9312 8.77649 13.3875 9.22499 12.9375L9.78749 12.375C10.05 12.1125 10.341 11.9437 10.6605 11.8687C10.98 11.7937 11.3077 11.7937 11.6437 11.8687L32.0625 17.1L40.8937 8.38124C41.5312 7.74374 42.3285 7.42499 43.2855 7.42499C44.2425 7.42499 45.039 7.74374 45.675 8.38124C46.3125 9.01874 46.6312 9.81599 46.6312 10.773C46.6312 11.73 46.3125 12.5265 45.675 13.1625L36.9 21.9375L42.1312 42.2437C42.2062 42.6187 42.1965 42.9847 42.102 43.3417C42.0075 43.6987 41.8297 44.0077 41.5687 44.2687L41.2875 44.55C40.7625 45.075 40.1527 45.2812 39.4582 45.1687C38.7637 45.0562 38.2485 44.6812 37.9125 44.0437L29.7 29.025L20.925 37.8L21.6 42.6375C21.6375 42.9 21.6187 43.1437 21.5437 43.3687C21.4687 43.5937 21.3375 43.8 21.15 43.9875L20.8687 44.2687C20.4937 44.6437 20.0437 44.8027 19.5187 44.7457C18.9937 44.6887 18.6 44.4172 18.3375 43.9312L15.4125 38.5875Z" fill="#F56013"/>
</svg>
