<svg width="40" height="40" viewBox="0 0 40 40" fill="none" xmlns="http://www.w3.org/2000/svg">
<path fill-rule="evenodd" clip-rule="evenodd" d="M20.99 38.7633L20.97 38.7666L20.8516 38.825L20.8183 38.8316L20.795 38.825L20.6766 38.765C20.6589 38.7605 20.6455 38.7639 20.6366 38.775L20.63 38.7916L20.6016 39.505L20.61 39.5383L20.6266 39.56L20.8 39.6833L20.825 39.69L20.845 39.6833L21.0183 39.56L21.0383 39.5333L21.045 39.505L21.0166 38.7933C21.0122 38.7755 21.0033 38.7655 20.99 38.7633ZM21.43 38.575L21.4066 38.5783L21.1 38.7333L21.0833 38.75L21.0783 38.7683L21.1083 39.485L21.1166 39.505L21.13 39.5183L21.465 39.6716C21.4861 39.6772 21.5022 39.6728 21.5133 39.6583L21.52 39.635L21.4633 38.6116C21.4578 38.5905 21.4466 38.5783 21.43 38.575ZM20.2383 38.5783C20.231 38.5739 20.2222 38.5724 20.2138 38.5743C20.2054 38.5761 20.1981 38.5812 20.1933 38.5883L20.1833 38.6116L20.1266 39.635C20.1278 39.655 20.1372 39.6683 20.155 39.675L20.18 39.6716L20.515 39.5166L20.5316 39.5033L20.5366 39.485L20.5666 38.7683L20.5616 38.7483L20.545 38.7316L20.2383 38.5783Z" fill="white"/>
<path fill-rule="evenodd" clip-rule="evenodd" d="M20 3.33331C10.795 3.33331 3.33331 10.795 3.33331 20C3.33331 29.205 10.795 36.6666 20 36.6666C29.205 36.6666 36.6666 29.205 36.6666 20C36.6666 10.795 29.205 3.33331 20 3.33331ZM14.1666 15.8333C14.1666 15.0673 14.3175 14.3087 14.6107 13.601C14.9038 12.8933 15.3335 12.2502 15.8752 11.7085C16.4169 11.1668 17.0599 10.7372 17.7677 10.444C18.4754 10.1509 19.2339 9.99998 20 9.99998C20.766 9.99998 21.5246 10.1509 22.2323 10.444C22.94 10.7372 23.5831 11.1668 24.1248 11.7085C24.6664 12.2502 25.0961 12.8933 25.3893 13.601C25.6824 14.3087 25.8333 15.0673 25.8333 15.8333C25.8333 17.3804 25.2187 18.8641 24.1248 19.9581C23.0308 21.0521 21.5471 21.6666 20 21.6666C18.4529 21.6666 16.9692 21.0521 15.8752 19.9581C14.7812 18.8641 14.1666 17.3804 14.1666 15.8333ZM30.43 28.3066C29.182 29.8756 27.5958 31.1425 25.7899 32.0128C23.9839 32.8832 22.0047 33.3346 20 33.3333C17.9952 33.3346 16.0161 32.8832 14.2101 32.0128C12.4041 31.1425 10.818 29.8756 9.56998 28.3066C12.2716 26.3683 15.9583 25 20 25C24.0416 25 27.7283 26.3683 30.43 28.3066Z" fill="white"/>
</svg>
